<svg xmlns="http://www.w3.org/2000/svg" viewBox="0 0 1024 1024" width="1024" height="1024" role="img" aria-label="Match"><path d="M512.39,12.99C510.37,13.55 500.4,14.33 490.2,14.89C472.49,15.68 460.5,16.91 445.92,19.15C428.44,21.95 418.24,23.75 417.23,24.42C416.56,24.76 413.42,25.54 410.28,26.1C393.92,28.9 389.54,30.03 360.18,39.1C353.12,41.35 345.94,43.25 344.26,43.36C342.58,43.48 340.56,44.15 339.78,44.82C338.88,45.49 330.36,49.3 320.72,53.34C299.76,62.08 273.98,74.86 256.95,84.95C250.11,89.1 242.93,92.46 241.03,92.57C239.12,92.68 237.33,93.58 237.11,94.36C236.32,96.6 230.83,101.42 223.54,106.24C208.75,116.11 179.16,140.54 156.85,161.62C155.84,162.51 152.7,166.1 149.79,169.46C146.99,172.82 143.85,176.07 142.73,176.52C141.72,177.08 140.04,179.1 138.92,181.12C137.91,183.02 134.66,187.17 131.74,190.2C128.83,193.34 125.58,197.15 124.57,198.72C123.56,200.29 120.65,203.76 118.18,206.56C115.72,209.25 111.57,214.63 109.1,218.44C106.64,222.37 104.17,225.51 103.72,225.51C103.16,225.51 101.93,227.19 100.92,229.32C100.02,231.45 94.53,240.08 88.81,248.6C83.21,257.23 75.03,270.68 70.77,278.75C66.4,286.7 61.91,294.89 60.79,296.79C56.65,303.74 43.53,335.46 33,364.49C28.96,375.48 25.15,388.26 24.48,392.52C24.25,394.64 22.91,400.7 21.67,405.97C20.44,411.23 18.65,419.53 17.64,424.46C16.63,429.39 15.29,435.22 14.61,437.35C14.05,439.48 13.38,444.3 13.27,448.11C13.16,452.93 12.48,456.07 10.58,458.98C8.78,462.01 8.34,463.58 9.23,465.04C9.91,466.38 9.91,475.91 9.12,492.27C8,518.28 9.23,561.21 11.59,576.34C12.26,580.37 12.71,586.09 12.82,589.12C12.82,592.14 13.49,595.95 14.28,597.52C15.06,599.09 16.07,603.69 16.52,607.5C16.97,611.42 17.86,616.02 18.42,617.59C19.1,619.27 20.11,623.08 20.67,626.22C23.36,640 25.82,649.87 27.5,652.89C28.18,654.13 29.3,657.71 30.08,660.85C31.54,666.34 33.78,672.73 40.17,688.99C41.85,693.24 44.2,699.41 45.33,702.66C47.57,708.83 65.84,745.03 68.19,747.83C68.86,748.73 71.22,752.54 73.23,756.24C75.25,759.94 78.28,764.98 79.96,767.45C81.64,769.91 85.45,775.74 88.37,780.34C91.39,784.93 95.09,790.09 96.55,791.77C98.12,793.45 99.46,796.14 99.69,797.93C99.8,799.62 100.81,801.52 101.93,802.19C102.94,802.75 104.51,804.1 105.4,805C110.78,811.16 115.72,817.44 118.29,821.25C123.67,829.43 168.96,875.83 176.69,880.99C178.04,882 182.18,885.36 185.88,888.5C189.58,891.75 199.44,899.37 207.74,905.65C216.03,911.93 224.33,918.09 226.23,919.55C229.82,922.35 244.73,930.98 255.38,936.36C259.08,938.27 263.78,941.29 265.8,942.98C267.82,944.77 270.17,946.23 270.96,946.23C273.2,946.23 292.7,956.09 293.15,957.55C293.37,958.22 295.06,959 296.85,959.23C298.75,959.34 303.57,961.13 307.72,963.04C311.87,964.83 316.02,966.4 316.91,966.4C317.81,966.4 321.96,967.86 326.1,969.65C330.36,971.45 337.76,974.25 342.58,975.82C347.4,977.39 352.44,979.52 353.79,980.41C355.13,981.31 357.26,981.98 358.5,981.87C359.73,981.87 366.01,983.33 372.51,985.12C465.99,1012.02 567.99,1010.12 660.57,979.85C680.52,973.35 697,966.85 724.46,954.63C736.12,949.48 747.66,944.66 750.13,943.98C752.6,943.31 754.95,942.3 755.29,941.74C755.62,941.18 765.04,935.91 776.36,930.09C807.63,913.72 843.72,892.31 844.84,889.4C845.18,888.61 844.62,887.27 843.72,886.6C839.35,883.01 837.67,881.1 837.67,879.87C837.67,879.2 845.4,870.79 854.93,861.15L872.19,843.89L891.25,844.11C905.93,844.34 910.64,844 911.53,842.88C912.21,842.1 914.34,839.52 916.13,837.05C917.92,834.7 924.87,827.08 931.49,820.02C938.21,813.07 947.63,802.31 952.45,796.14C957.38,789.86 961.75,784.82 962.2,784.82C962.53,784.82 963.54,783.48 964.22,781.68C964.89,780 968.03,775.97 971.05,772.71C974.08,769.46 977.78,763.97 979.35,760.5C980.92,757.13 983.94,751.98 986.07,749.06C988.09,746.26 993.47,736.85 997.95,728.22C1002.55,719.59 1007.37,710.62 1008.83,708.26C1011.96,703.22 1016,691 1015.22,688.99C1014.21,686.41 1011.4,686.07 1007.71,687.98C1002.21,690.89 1001.32,692.8 1004.23,695.71C1008.27,699.63 1002.77,704.12 974.53,720.26C952,733.15 947.96,735.05 946.62,733.71C944.6,731.58 943.59,732.36 934.62,742.79C913.33,767.78 872.75,804.66 858.18,812.06C856.28,813.07 854.48,814.41 854.26,814.97C853.14,818.11 811.67,842.66 809.65,841.42C807.74,840.3 804.27,841.87 803.48,844.34C802.59,846.92 797.54,849.61 776.47,858.57C703.28,889.85 620.22,900.16 541.2,887.83C532.68,886.48 525.28,884.69 523.26,883.46C520.91,882 519.34,881.66 518,882.45C516.32,883.34 501.52,879.42 486.84,873.93C459.04,863.73 444.02,857.68 435.84,853.53C410.39,840.42 395.93,832.57 395.26,831.56C394.7,830.78 390.44,828.2 385.51,825.84C380.69,823.49 374.75,819.57 372.28,817.1C369.82,814.64 366.9,812.51 365.78,812.28C363.32,811.83 356.93,807.24 356.7,805.89C356.59,805.44 356.37,804.44 356.25,803.88C356.14,803.2 355.92,802.31 355.81,801.63C355.58,799.5 351.32,798.16 348.97,799.39C346.73,800.62 342.24,797.6 342.24,794.8C342.24,794.24 340.34,792.89 338.1,791.88C332.72,789.75 324.42,782.8 313.66,771.37C312.77,770.47 310.41,768.46 308.39,766.89C302,761.84 280.48,740.66 278.91,737.74C278.13,736.17 274.77,732.14 271.4,728.78C263.56,720.71 259.3,715.1 258.74,711.85C258.4,710.39 257.62,708.94 256.83,708.71C252.35,707.26 228.81,669.71 228.48,663.54C228.36,661.64 227.47,659.62 226.46,659.06C224.1,657.83 222.2,654.24 221.75,650.65C221.64,649.19 220.41,646.84 219.06,645.38C214.24,640.23 198.32,597.75 191.49,571.85C173.22,502.02 172.88,428.27 190.48,357.21C195.07,338.83 205.5,308.45 208.08,305.87C209.53,304.41 210.54,301.84 210.65,299.26C211.1,290.85 246.19,224.94 253.58,218.78C254.7,217.77 256.27,215.87 257.06,214.41C260.08,208.69 277.79,188.29 292.48,173.5C312.65,153.43 314.56,151.53 329.91,138.75C347.51,124.07 348.97,122.95 353.23,120.82C355.13,119.81 356.82,118.57 356.82,118.01C356.82,117.57 360.51,114.76 365,111.96C369.37,109.16 375.09,105.35 377.55,103.67C390.33,94.7 445.36,65.22 449.4,65.22C449.96,65.22 455,63.2 460.72,60.74C470.25,56.59 475.52,55.81 478.77,57.82C479.33,58.16 481.57,56.7 483.7,54.57C487.4,51.1 492.66,48.97 500.06,47.85C501.74,47.62 505.78,46.39 509.03,45.16C512.28,43.92 515.87,42.92 516.88,42.92C517.88,42.92 520.8,42.47 523.15,41.79C527.52,40.67 531.67,41.68 531.67,43.81C531.67,47.29 540.08,45.27 541.2,41.46C542.66,36.97 550.28,35.74 585.47,34.28C608.45,33.28 649.59,36.86 659.11,40.67C660.91,41.46 663.49,42.13 665.06,42.35C666.62,42.47 669.65,42.92 671.89,43.14C674.13,43.48 677.16,44.37 678.62,45.16C680.07,45.94 683.55,46.95 686.35,47.4C694.09,48.52 702.72,51.21 714.71,56.03C724.12,59.84 725.92,60.29 727.26,58.94C729.17,56.93 728.38,54.35 725.58,53.45C724.46,53.12 721.66,51.55 719.42,49.98C715.72,47.51 707.54,44.37 681.31,35.63C676.38,33.95 669.43,31.03 665.84,29.24C660.8,26.77 658.89,26.21 657.21,27.11C655.98,27.78 654.07,27.9 652.5,27.22C646.9,25.09 641.63,23.64 637.48,23.19C635.02,22.85 629.86,22.07 625.82,21.39C601.39,17.58 587.49,16.13 563.62,14.78C553.75,14.22 543.22,13.55 540.08,13.21C529.77,12.09 516.2,11.98 512.39,12.99" fill="#C89341" fill-rule="evenodd"/><path d="M183.08,223.82C176.02,224.61 165.93,226.07 160.66,227.07C151.36,228.98 118.52,238.73 119.3,239.4C119.53,239.63 122.78,239.4 126.48,238.96C139.7,237.05 175.23,236.83 187,238.51C224.1,243.78 253.47,258.12 272.75,280.54C286.09,296.01 309.51,334.57 307.27,337.26C305.59,339.39 304.69,338.38 297.3,325.15L291.24,314.5L290.91,457.97C290.68,547.2 290.12,606.04 289.45,613.33C287.43,632.94 283.62,645.94 276.56,656.7C274.43,659.84 272.75,662.76 272.75,663.09C272.75,664.1 257.73,678.9 254.26,681.36C247.42,686.07 236.66,690.89 230.38,691.9C226.91,692.46 220.52,693.69 216.15,694.59C211.89,695.49 206.17,696.16 203.59,696.27C198.1,696.27 195.19,697.17 196.08,698.63C196.42,699.19 206.84,699.63 219.4,699.63C240.58,699.63 242.26,699.75 244.17,701.88C246.07,704.01 248.76,703.89 247.42,701.76C247.08,701.2 247.42,699.97 248.09,699.07C249.32,697.62 260.2,697.39 324.65,697.39C366.01,697.39 399.52,697.17 399.3,696.94C399.07,696.61 394.03,695.94 388.2,695.26C347.85,691.23 319.49,662.98 312.2,619.6C309.4,603.13 309.29,352.16 312.09,349.36C314.56,346.78 315.01,347.46 334.4,383.55C400.64,506.96 427.54,546.86 464.42,576.67C501.86,606.83 550.73,623.41 602.4,623.41C613.38,623.41 615.74,624.2 615.74,628.23C615.74,629.36 616.19,630.03 616.75,629.69C620.11,627.56 620.33,632.72 620,725.53C619.66,811.16 619.44,819.57 617.64,825.73C614.17,837.16 609.35,845.68 601.95,852.86C591.19,863.39 581.21,867.65 554.09,873.26C545.35,875.05 553.86,874.6 574.49,872.25C602.85,869.11 636.92,867.54 681.31,867.54C739.71,867.54 775.35,870.12 850.56,879.53C903.58,886.15 920.17,887.94 929.92,887.94C960.63,887.94 974.86,876.17 998.18,831.56C1003,822.15 1007.26,813.74 1007.48,812.84C1007.71,811.95 1009.16,807.69 1010.73,803.43C1015.22,791.32 1014.21,790.76 1007.26,801.41C996.61,817.44 977.44,833.8 960.18,841.31C941.8,849.49 935.3,850.39 898.76,850.39C880.93,850.39 858.74,849.72 849.44,848.93C832.85,847.59 817.83,846.47 788.35,844.23C780.06,843.67 759.32,842.66 742.4,841.98C701.15,840.42 695.65,839.18 687.02,829.66C676.15,817.55 676.15,818 676.15,685.85C676.15,561.43 676.15,561.77 683.89,546.52C693.3,528.14 719.87,514.69 746.77,514.69C749.34,514.69 751.36,514.13 751.36,513.46C751.36,512.67 740.27,512.34 714.93,512.56C688.93,512.67 678.17,512.45 677.05,511.55C674.58,509.53 675.14,348.46 677.61,336.47C681.42,318.43 688.37,305.2 699.47,295C709.11,286.26 727.94,278.19 739.14,278.19C744.75,278.19 753.6,276.95 753.6,276.06C753.6,275.72 729.28,275.5 699.58,275.72L645.44,276.06L640.28,284.69C635.02,293.65 614.39,326.83 602.62,345.44C598.92,351.27 584.8,373.68 571.35,395.32C535.26,452.71 518.11,479.83 504.21,501.13C491.88,520.07 491.88,520.07 495.24,525C501.97,534.87 503.76,536.66 504.77,534.87C505.33,533.97 511.83,523.88 519.23,512.45C532.79,491.38 545.68,471.2 580.77,416.05C616.86,359.34 618.99,356.31 620.67,357.66C622.69,359.34 622.24,509.76 620.22,511.78C619.44,512.56 606.66,513.12 583.23,513.46C547.92,513.79 538.73,514.8 556.33,516.26C589.17,518.95 612.15,538.45 618.43,568.72C621,580.93 621,616.91 618.43,618.93C614.28,622.41 585.25,614.56 564.4,604.14C537.16,590.69 507.8,563.22 482.24,527.47C462.29,499.56 435.84,452.59 401.54,384.67C358.83,299.59 342.92,276.17 313.44,253.98C280.6,229.32 233.3,218.33 183.08,223.82" fill="#070F18" fill-rule="evenodd" stroke="#E8C88B" stroke-width="12.3" stroke-linejoin="round" paint-order="stroke"/></svg>
